<svg width="10mm" height="10mm" version="1.1" viewBox="0 0 10 10" xmlns="http://www.w3.org/2000/svg" xmlns:xlink="http://www.w3.org/1999/xlink">
	<g transform="translate(.387 .0646)">
		<g id="text1362" transform="matrix(.034 0 0 .034 -10.8 -15.5)" fill="#a03" stroke="#a03" style="shape-inside:url(#rect1364);white-space:pre" aria-label="&gt;">
			<path d="m522 627 20.4-22.1-20.4-26.4v-23l50.4 45.1v9.6l-50.4 39.7z" fill="#a03" stroke="#a03" stroke-linecap="round" stroke-linejoin="bevel" stroke-width="1.13"/>
		</g>
		<use transform="matrix(-1 0 0 1 9.23 2.37e-8)" fill="#aa0033" stroke="#aa0033" xlink:href="#text1362"/>
		<g fill="#a03">
			<path d="m3.04 5.5h3.15c0.0145 0 0.0262 0.0117 0.0262 0.0262v0.653c0 0.0145-0.0117 0.0262-0.0262 0.0262h-3.15c-0.0145 0-0.0262-0.0117-0.0262-0.0262v-0.653c0-0.0145 0.0117-0.0262 0.0262-0.0262z" stroke-width=".193"/>
			<path d="m6.16 5.14c0.00432 0.0116-0.0117 0.0262-0.0262 0.0262h-3.04c-0.0145 0-0.0299-0.0144-0.0262-0.0262 0.15-0.491 0-1.53 0-1.53s0.608 1.75 1.55 0.126c0.931 1.61 1.55-0.126 1.55-0.126s-0.173 1.07-0.0038 1.53z" stroke="#a03" stroke-linecap="round" stroke-linejoin="round" stroke-width=".0828"/>
			<circle cx="4.61" cy="2.88" r=".262" stroke="#a03" stroke-linecap="round" stroke-linejoin="bevel" stroke-width=".0452"/>
		</g>
	</g>
</svg>
